{"glyphs":{":":{"x_min":0,"x_max":176,"ha":176,"o":""},"$":{"x_min":0,"x_max":392,"ha":392,"o":"m 203 -5 q 199 -6 199 -10 l 190 -85 q 190 -89 187 -92 q 184 -95 179 -95 l 168 -95 q 159 -95 159 -85 l 168 -12 q 170 -8 165 -8 q 110 -5 78 34 q 45 72 45 134 q 45 144 47 166 l 49 185 q 51 195 60 195 l 77 195 q 82 195 84 192 q 87 189 86 185 l 84 167 q 82 149 82 140 q 82 88 108 57 q 134 26 178 26 q 213 26 243 46 q 273 66 291 102 q 309 138 309 184 q 309 217 296 242 q 284 266 265 284 q 246 303 204 339 q 164 374 142 397 q 119 420 105 450 q 91 480 91 519 q 91 527 93 547 q 103 620 146 662 q 188 705 249 708 q 253 708 253 712 l 262 790 q 264 800 273 800 l 284 800 q 289 800 292 797 q 294 794 293 790 l 283 710 q 283 707 286 705 q 333 697 360 660 q 387 622 387 565 q 387 554 385 532 l 382 507 q 382 503 379 500 q 376 497 371 497 l 353 497 q 343 497 345 507 l 348 532 q 350 550 350 558 q 350 611 324 642 q 297 674 253 674 q 206 674 172 640 q 137 606 130 545 q 129 537 129 523 q 129 481 151 451 q 173 421 229 374 q 275 335 299 310 q 323 286 336 259 q 349 232 349 197 q 349 189 347 169 q 338 98 298 52 q 259 5 203 -5 z"},"?":{"x_min":0,"x_max":328,"ha":328,"o":"m 136 200 l 145 270 q 150 311 168 336 q 185 362 219 395 q 257 432 277 462 q 297 492 303 543 q 305 563 305 571 q 305 618 284 646 q 263 673 228 673 q 185 673 154 638 q 124 602 116 544 l 112 507 q 110 497 101 497 l 82 498 q 78 498 76 501 q 73 504 74 508 l 78 544 q 87 617 130 663 q 173 709 233 709 q 284 709 314 672 q 343 636 343 574 q 343 564 341 542 q 333 479 310 442 q 286 405 246 367 q 217 339 202 318 q 188 298 184 269 l 176 200 q 174 190 165 190 l 145 190 q 140 190 138 193 q 135 196 136 200 z m 94 44 q 94 66 108 80 q 123 95 144 95 q 161 95 172 84 q 183 73 183 56 q 183 34 168 19 q 153 4 132 4 q 115 4 104 15 q 94 26 94 44 z"},"<":{"x_min":0,"x_max":430,"ha":430,"o":"m 372 68 l 53 247 q 47 249 47 259 l 50 281 q 52 291 58 293 l 422 472 q 424 473 427 473 q 434 473 432 465 l 430 446 q 430 437 422 434 l 89 273 q 87 272 86 270 q 86 268 88 267 l 382 106 q 389 103 387 94 l 385 75 q 384 70 380 68 q 377 66 372 68 z"},"'":{"x_min":0,"x_max":93,"ha":93,"o":"m 74 512 l 90 687 q 92 697 101 697 l 122 697 q 127 697 130 694 q 132 691 131 687 l 105 512 q 104 502 94 502 l 82 502 q 73 502 74 512 z"},"=":{"x_min":0,"x_max":430,"ha":430,"o":""},"a":{"x_min":0,"x_max":400,"ha":400,"o":"m 345 502 l 363 502 q 368 502 370 499 q 373 496 372 492 l 313 10 q 312 6 309 3 q 306 0 302 0 l 283 0 q 273 0 275 10 l 280 49 q 280 52 278 52 q 276 53 275 50 q 255 22 227 7 q 199 -8 167 -8 q 114 -8 83 26 q 52 59 52 114 q 52 121 54 139 l 81 363 q 89 429 130 470 q 171 510 230 510 q 263 510 288 495 q 312 480 324 452 q 325 449 327 450 q 329 450 329 453 l 334 492 q 336 502 345 502 z m 291 140 l 318 362 q 319 369 319 381 q 319 424 296 450 q 273 475 235 475 q 190 475 158 444 q 125 412 119 362 l 92 140 q 91 134 91 122 q 91 80 116 54 q 140 27 180 27 q 223 27 254 58 q 285 90 291 140 z"},"L":{"x_min":0,"x_max":371,"ha":371,"o":"m 63 10 l 147 690 q 149 700 158 700 l 176 700 q 185 700 185 690 l 105 39 q 104 38 105 36 q 106 35 108 35 l 338 35 q 348 35 346 25 l 345 10 q 343 0 334 0 l 72 0 q 63 0 63 10 z"},"3":{"x_min":0,"x_max":384,"ha":384,"o":"m 334 272 q 334 245 329 207 q 322 148 306 104 q 262 -8 162 -8 q 109 -8 80 22 q 50 53 45 111 q 43 131 43 144 q 43 168 46 195 q 48 205 57 205 l 76 205 q 85 205 84 195 q 82 180 82 152 q 82 130 83 121 q 87 75 108 51 q 129 27 166 27 q 236 27 270 111 q 286 154 293 210 q 297 256 297 273 q 297 301 292 328 q 277 400 212 400 q 205 400 193 398 q 191 397 188 397 q 184 397 180 401 l 173 410 q 168 415 172 424 l 335 660 q 336 662 336 664 q 335 665 333 665 l 116 665 q 111 665 108 668 q 106 671 107 675 l 109 690 q 111 700 120 700 l 378 700 q 388 700 386 690 l 384 672 q 384 667 380 659 l 225 433 q 223 428 226 428 q 265 428 290 405 q 316 382 326 339 q 334 309 334 272 z"},";":{"x_min":0,"x_max":170,"ha":170,"o":"m 75 402 q 75 423 90 440 q 104 456 122 456 q 136 456 146 444 q 156 432 156 415 q 156 393 142 378 q 128 362 110 362 q 95 362 85 374 q 75 385 75 402 z m 21 -54 l 66 139 q 67 148 76 148 l 94 148 q 98 148 100 145 q 103 142 101 137 l 50 -56 q 49 -65 40 -65 l 29 -65 q 24 -65 22 -62 q 20 -58 21 -54 z"},"J":{"x_min":0,"x_max":401,"ha":401,"o":"m 23 126 q 23 135 25 153 l 36 242 q 36 246 39 249 q 42 252 46 252 l 65 252 q 75 252 73 242 l 62 151 q 61 144 61 130 q 61 83 86 55 q 112 27 156 27 q 205 27 239 61 q 273 95 280 151 l 347 690 q 347 694 350 697 q 353 700 358 700 l 376 700 q 386 700 384 690 l 319 153 q 310 80 264 36 q 218 -8 151 -8 q 92 -8 58 28 q 23 64 23 126 z"},"V":{"x_min":0,"x_max":404,"ha":404,"o":"m 163 9 l 105 689 q 105 700 115 700 l 135 700 q 145 700 145 691 l 191 81 q 192 78 193 78 q 194 78 195 81 l 391 691 q 394 700 403 700 l 423 700 q 433 700 430 689 l 206 9 q 203 0 194 0 l 173 0 q 163 0 163 9 z"},"\"":{"x_min":0,"x_max":178,"ha":178,"o":"m 73 506 l 90 683 q 90 687 93 690 q 96 693 101 693 l 121 693 q 131 693 129 683 l 103 506 q 102 496 92 496 l 81 496 q 72 496 73 506 z m 158 506 l 177 683 q 179 693 188 693 l 207 693 q 212 693 214 690 q 217 687 216 683 l 189 506 q 188 496 178 496 l 167 496 q 157 496 158 506 z"},"7":{"x_min":0,"x_max":337,"ha":337,"o":"m 90 11 l 338 661 q 339 662 338 664 q 337 665 335 665 l 126 665 q 122 665 122 661 l 117 618 q 115 608 106 608 l 92 608 q 82 608 84 618 l 92 690 q 93 694 96 697 q 99 700 103 700 l 375 700 q 385 700 383 690 l 381 671 q 381 668 380 665 q 379 662 378 659 l 130 9 q 129 5 126 2 q 122 0 118 0 l 97 0 q 85 0 90 11 z"},"S":{"x_min":0,"x_max":392,"ha":392,"o":"m 45 135 q 45 144 47 166 l 49 185 q 51 195 60 195 l 77 195 q 82 195 84 192 q 87 189 86 185 l 84 167 q 82 149 82 140 q 82 88 108 57 q 134 26 178 26 q 213 26 243 46 q 273 66 291 102 q 309 138 309 184 q 309 217 296 242 q 284 266 265 284 q 246 303 204 339 q 164 374 142 397 q 119 420 105 450 q 91 480 91 519 q 91 527 93 547 q 103 622 148 665 q 193 708 257 708 q 317 708 352 669 q 387 630 387 564 q 387 554 385 532 l 382 507 q 382 503 379 500 q 376 497 371 497 l 353 497 q 343 497 345 507 l 348 532 q 350 550 350 558 q 350 611 324 642 q 297 674 253 674 q 206 674 172 640 q 137 606 130 545 q 129 537 129 523 q 129 481 151 451 q 173 421 229 374 q 275 335 299 310 q 323 286 336 259 q 349 232 349 197 q 349 189 347 169 q 337 89 289 40 q 241 -8 175 -8 q 115 -8 80 31 q 45 70 45 135 z"},"}":{"x_min":0,"x_max":233,"ha":233,"o":"m 1 -109 q -9 -109 -7 -99 l -5 -84 q -5 -80 -2 -77 q 1 -74 5 -74 l 33 -74 q 62 -74 78 -56 q 94 -37 99 5 l 125 220 q 130 264 144 290 q 157 315 181 328 q 186 331 181 333 q 150 351 150 405 q 150 427 152 440 l 178 648 q 179 656 179 671 q 179 700 168 714 q 156 727 131 727 l 104 727 q 95 727 95 737 l 97 752 q 99 762 108 762 l 143 762 q 181 762 200 743 q 218 724 218 683 q 218 675 216 653 l 190 438 q 188 416 188 408 q 188 381 196 367 q 205 353 224 348 q 232 347 232 338 l 230 322 q 229 313 219 312 q 195 307 182 286 q 168 264 163 222 l 136 0 q 129 -58 105 -84 q 81 -109 36 -109 z"},"Z":{"x_min":0,"x_max":376,"ha":376,"o":"m 20 10 l 22 29 q 22 34 25 41 l 351 660 q 352 662 351 664 q 350 665 348 665 l 110 665 q 101 665 101 675 l 103 690 q 105 700 114 700 l 389 700 q 393 700 396 697 q 398 694 397 690 l 395 671 q 393 662 391 659 l 66 40 q 65 38 66 36 q 66 35 68 35 l 307 35 q 317 35 315 25 l 314 10 q 313 6 310 3 q 307 0 303 0 l 28 0 q 18 0 20 10 z"},"x":{"x_min":0,"x_max":336,"ha":336,"o":"m 6 12 l 158 248 q 160 251 158 254 l 65 490 l 64 494 q 64 502 73 502 l 96 502 q 105 502 106 495 l 182 289 q 183 287 185 287 q 187 287 188 289 l 314 495 q 318 502 326 502 l 347 502 q 352 502 354 498 q 355 495 352 490 l 202 254 q 200 250 201 248 l 293 12 l 294 8 q 294 0 285 0 l 265 0 q 255 0 254 7 l 179 214 q 178 216 176 216 q 174 216 173 214 l 46 7 q 43 0 34 0 l 12 0 q 7 0 6 4 q 4 7 6 12 z"},")":{"x_min":0,"x_max":175,"ha":175,"o":"m 178 758 q 194 710 202 642 q 211 575 211 498 q 211 413 201 333 q 185 208 150 90 q 114 -28 70 -103 q 64 -110 57 -110 l 41 -110 q 36 -110 34 -107 q 32 -104 34 -99 q 75 -23 108 94 q 142 211 157 332 q 167 415 167 503 q 167 656 139 754 l 138 757 q 138 765 148 765 l 168 765 q 175 765 178 758 z"},"&":{"x_min":0,"x_max":499,"ha":499,"o":"m 428 8 q 428 0 419 0 l 401 0 q 393 0 389 7 l 371 43 q 363 57 349 85 q 346 88 343 85 q 299 35 260 14 q 221 -8 175 -8 q 113 -8 78 25 q 43 58 43 120 q 43 128 45 150 q 53 219 90 268 q 127 317 193 373 q 197 375 195 378 q 159 448 147 480 q 135 513 135 540 q 135 548 137 566 q 145 631 184 670 q 223 708 278 708 q 327 708 356 676 q 386 645 386 592 q 386 544 366 505 q 347 466 319 438 q 291 409 244 368 q 242 367 242 363 l 298 256 l 313 228 q 321 214 330 196 q 340 178 352 155 q 354 152 357 155 q 372 175 416 239 q 423 249 430 243 l 443 234 q 450 229 444 220 q 398 152 373 122 q 371 118 372 116 l 427 12 z m 173 543 q 173 519 183 490 q 193 461 222 402 q 225 398 228 401 q 287 452 318 494 q 348 535 348 588 q 348 626 328 649 q 308 672 274 672 q 231 672 202 636 q 173 601 173 543 z m 328 118 q 329 120 329 124 l 288 201 l 215 338 q 213 341 210 339 q 147 284 114 237 q 81 190 81 127 q 81 79 108 53 q 134 27 183 27 q 222 28 255 49 q 288 70 328 118 z"},"_":{"x_min":0,"x_max":345,"ha":345,"o":"m 7 10 l 9 24 q 11 34 20 34 l 295 34 q 304 34 304 24 l 302 10 q 300 0 291 0 l 16 0 q 11 0 8 3 q 6 6 7 10 z"},"v":{"x_min":0,"x_max":342,"ha":342,"o":"m 131 9 l 69 491 l 69 493 q 69 502 79 502 l 100 502 q 110 502 110 493 l 159 69 q 159 66 160 66 q 162 66 163 69 l 314 493 q 315 497 318 500 q 321 502 325 502 l 349 502 q 360 502 355 491 l 176 9 q 173 0 164 0 l 141 0 q 131 0 131 9 z"},"O":{"x_min":0,"x_max":435,"ha":435,"o":"m 61 130 q 61 138 63 156 l 110 543 q 119 616 168 662 q 216 708 284 708 q 347 708 384 670 q 421 632 421 569 q 421 561 419 543 l 371 156 q 362 83 314 38 q 265 -8 196 -8 q 134 -8 98 30 q 61 67 61 130 z m 333 154 l 381 545 q 382 552 382 567 q 382 615 354 644 q 326 673 280 673 q 229 673 192 638 q 155 602 148 545 l 100 154 q 99 147 99 134 q 99 86 126 56 q 154 27 200 27 q 252 27 289 62 q 326 98 333 154 z"},"(":{"x_min":0,"x_max":175,"ha":175,"o":"m 39 -103 q 23 -55 14 12 q 6 80 6 157 q 6 242 16 322 q 32 446 68 564 q 103 683 146 758 q 152 765 159 765 l 175 765 q 180 765 182 762 q 184 759 182 754 q 142 678 108 561 q 75 444 60 324 q 49 231 49 151 q 49 5 77 -99 l 78 -102 q 78 -110 68 -110 l 50 -110 q 42 -110 39 -103 z"},"C":{"x_min":0,"x_max":424,"ha":424,"o":"m 61 127 q 61 136 63 154 l 111 547 q 120 620 167 664 q 214 708 282 708 q 344 708 380 672 q 417 636 417 574 q 417 565 415 547 l 413 527 q 411 517 402 517 l 382 516 q 378 516 376 519 q 373 522 374 526 l 377 549 q 378 556 378 569 q 378 617 351 645 q 324 673 278 673 q 227 673 192 639 q 156 605 149 549 l 100 151 q 99 144 99 130 q 99 83 126 55 q 152 27 198 27 q 250 27 286 61 q 321 95 328 151 l 331 173 q 331 177 334 180 q 337 183 342 183 l 361 182 q 371 182 369 172 l 367 154 q 358 81 310 36 q 263 -8 194 -8 q 133 -8 97 28 q 61 65 61 127 z"},"W":{"x_min":0,"x_max":575,"ha":575,"o":"m 140 9 l 97 689 q 97 700 107 700 l 127 700 q 136 700 136 691 l 170 93 q 170 91 171 91 q 172 91 173 93 l 337 691 q 340 700 348 700 l 366 700 q 375 700 375 691 l 395 93 q 395 91 396 91 q 397 91 398 93 l 569 691 q 572 700 581 700 l 601 700 q 606 700 608 697 q 610 694 608 689 l 406 9 q 403 0 394 0 l 374 0 q 366 0 366 9 l 348 605 q 347 607 346 607 q 345 607 344 605 l 179 9 q 176 0 168 0 l 149 0 q 140 0 140 9 z"},"A":{"x_min":0,"x_max":365,"ha":365,"o":"m 297 9 l 286 145 q 286 147 284 148 q 283 149 281 149 l 81 149 q 79 149 78 148 q 76 147 76 145 l 31 9 q 28 0 19 0 l 1 0 q -4 0 -6 3 q -8 6 -6 11 l 225 691 q 227 700 236 700 l 261 700 q 270 700 270 691 l 335 11 q 335 0 325 0 l 307 0 q 297 0 297 9 z m 92 182 l 278 182 q 280 182 282 184 q 283 185 282 186 l 243 633 q 242 636 241 636 q 240 636 239 633 l 90 186 q 89 185 90 184 q 91 182 92 182 z"},"f":{"x_min":0,"x_max":259,"ha":259,"o":"m 173 547 l 168 506 q 168 502 171 502 l 254 502 q 264 502 262 492 l 261 480 q 259 470 250 470 l 167 470 q 163 470 163 466 l 107 10 q 105 0 96 0 l 78 0 q 73 0 70 3 q 68 6 69 10 l 125 466 q 125 470 122 470 l 79 470 q 69 470 71 480 l 72 492 q 74 502 83 502 l 126 502 q 130 502 130 506 l 135 547 q 145 629 176 669 q 206 709 267 709 l 282 709 q 292 709 290 699 l 289 684 q 287 674 278 674 l 264 674 q 220 674 200 644 q 181 613 173 547 z"},"Q":{"x_min":0,"x_max":422,"ha":422,"o":"m 408 570 q 408 562 406 542 l 359 158 q 351 90 312 46 q 272 1 214 -7 q 210 -7 210 -11 l 198 -113 q 197 -117 194 -120 q 191 -123 187 -123 l 167 -123 q 157 -123 159 -113 l 171 -11 q 173 -7 168 -7 q 119 1 90 38 q 61 74 61 131 q 61 140 63 158 l 110 542 q 119 616 166 662 q 213 708 279 708 q 338 708 373 670 q 408 633 408 570 z m 369 545 q 370 552 370 567 q 370 615 344 644 q 319 673 275 673 q 226 673 190 638 q 155 602 148 545 l 101 155 q 99 139 99 132 q 99 85 126 56 q 152 27 195 27 q 244 27 278 62 q 313 98 321 155 z"},"w":{"x_min":0,"x_max":512,"ha":512,"o":"m 111 9 l 68 491 q 68 502 78 502 l 96 502 q 105 502 105 493 l 136 65 q 136 62 138 62 q 139 62 140 65 l 276 493 q 279 502 288 502 l 305 502 q 314 502 315 493 l 347 65 q 348 62 349 62 q 350 62 351 65 l 488 493 q 491 502 500 502 l 518 502 q 522 502 524 499 q 527 496 525 491 l 363 9 q 360 0 351 0 l 332 0 q 322 0 322 9 l 289 423 q 288 426 287 426 q 286 426 285 423 l 151 9 q 150 0 140 0 l 120 0 q 111 0 111 9 z"},"-":{"x_min":0,"x_max":296,"ha":296,"o":"m 54 310 l 55 325 q 56 329 59 332 q 62 335 66 335 l 273 335 q 283 335 281 325 l 280 310 q 279 306 276 303 q 273 300 269 300 l 62 300 q 52 300 54 310 z"},"E":{"x_min":0,"x_max":412,"ha":412,"o":"m 419 665 l 185 665 q 184 665 182 664 q 181 663 181 661 l 146 372 q 145 371 146 370 q 147 368 149 368 l 302 368 q 311 368 311 358 l 309 343 q 307 333 298 333 l 145 333 q 142 333 140 329 l 105 39 q 104 38 105 36 q 106 35 108 35 l 342 35 q 352 35 350 25 l 348 10 q 348 6 345 3 q 342 0 338 0 l 72 0 q 63 0 63 10 l 147 690 q 149 700 158 700 l 424 700 q 428 700 430 697 q 433 694 432 690 l 430 675 q 428 665 419 665 z"},"s":{"x_min":0,"x_max":346,"ha":346,"o":"m 43 102 q 43 113 44 119 l 44 124 q 46 134 55 134 l 73 134 q 83 134 81 124 l 81 119 q 80 114 80 106 q 80 72 103 50 q 126 29 166 29 q 212 29 242 60 q 271 91 271 140 q 271 177 248 196 q 225 216 178 237 q 129 259 102 284 q 76 309 76 357 q 76 369 77 376 q 84 435 124 470 q 164 506 222 506 q 275 506 306 476 q 337 447 337 398 q 337 384 336 377 l 336 374 q 334 364 325 364 l 309 364 q 304 364 302 367 q 299 370 300 374 l 301 378 l 302 390 q 302 426 279 450 q 256 473 218 473 q 172 473 142 442 q 113 410 113 363 q 113 328 134 310 q 156 291 200 270 q 236 254 257 241 q 278 228 294 205 q 309 182 309 147 q 309 79 268 38 q 227 -4 161 -4 q 107 -4 75 26 q 43 55 43 102 z"},">":{"x_min":0,"x_max":430,"ha":430,"o":"m 31 67 q 23 67 25 75 l 27 94 q 29 104 35 106 l 368 267 q 370 268 370 270 q 371 272 369 273 l 76 434 q 70 436 70 446 l 73 465 q 73 470 76 472 q 80 474 85 472 l 405 293 q 412 290 410 281 l 407 259 q 407 250 399 247 l 36 68 q 34 67 31 67 z"},"l":{"x_min":0,"x_max":164,"ha":164,"o":"m 45 10 l 128 690 q 130 700 139 700 l 158 700 q 168 700 166 690 l 83 10 q 81 0 72 0 l 53 0 q 49 0 46 3 q 44 6 45 10 z"},"8":{"x_min":0,"x_max":402,"ha":402,"o":"m 293 372 q 324 354 337 315 q 350 279 350 236 q 350 215 347 192 q 340 142 321 95 q 299 45 262 18 q 226 -8 179 -8 q 133 -8 104 18 q 75 45 65 95 q 61 127 61 146 q 61 168 64 193 q 73 260 97 305 q 121 351 161 371 q 166 374 161 376 q 130 395 117 428 q 104 457 104 498 q 104 522 106 535 q 116 603 142 640 q 163 673 195 691 q 227 709 267 709 q 348 709 377 643 q 391 612 391 569 q 391 558 389 534 q 380 470 353 431 q 331 397 294 378 q 289 375 293 372 z m 229 392 q 259 392 283 406 q 307 421 323 448 q 343 482 351 533 q 353 555 353 563 q 353 600 341 625 q 319 673 263 673 q 206 673 172 621 q 149 583 143 532 q 141 510 141 502 q 141 470 151 443 q 173 392 229 392 z m 308 193 q 311 216 311 236 q 311 269 303 296 q 295 327 274 342 q 254 358 224 358 q 162 358 129 290 q 108 250 101 193 q 99 179 99 154 q 99 127 103 108 q 109 69 130 48 q 151 27 184 27 q 218 27 245 49 q 272 71 288 112 q 302 148 308 193 z"},"\\":{"x_min":0,"x_max":288,"ha":288,"o":"m 242 9 q 242 0 233 0 l 214 0 q 210 0 208 2 q 205 5 205 9 l 131 689 l 131 691 q 131 700 140 700 l 159 700 q 168 700 168 691 l 242 11 z"},"e":{"x_min":0,"x_max":383,"ha":383,"o":"m 333 240 l 108 240 q 104 240 104 236 l 92 140 q 91 134 91 122 q 91 79 114 53 q 138 27 178 27 q 214 27 244 50 q 273 72 286 108 q 291 117 298 117 l 315 116 q 320 116 322 113 q 324 110 323 105 q 307 53 267 22 q 227 -8 174 -8 q 119 -8 86 26 q 52 59 52 115 q 52 122 54 138 l 81 363 q 89 428 132 469 q 176 510 237 510 q 294 510 326 476 q 359 441 359 385 q 359 371 358 363 l 344 250 q 342 240 333 240 z m 119 362 l 109 277 q 108 276 109 274 q 110 273 112 273 l 305 273 q 309 273 309 277 l 320 362 q 321 368 321 380 q 321 423 297 449 q 273 475 233 475 q 189 475 157 444 q 125 412 119 362 z"},"b":{"x_min":0,"x_max":400,"ha":400,"o":"m 370 386 q 370 371 369 363 l 341 138 q 333 74 292 33 q 250 -8 191 -8 q 159 -8 135 6 q 111 20 98 46 q 96 48 94 48 q 93 47 93 44 l 89 10 q 88 6 85 3 q 82 0 78 0 l 59 0 q 49 0 51 10 l 134 690 q 136 700 145 700 l 164 700 q 168 700 170 697 q 173 694 172 690 l 144 458 q 143 455 144 454 q 146 454 148 456 q 168 482 196 496 q 223 510 255 510 q 309 510 340 476 q 370 443 370 386 z m 332 380 q 332 423 308 449 q 284 475 244 475 q 200 475 169 444 q 138 412 132 362 l 104 140 q 103 134 103 121 q 103 79 126 53 q 150 27 189 27 q 233 27 265 58 q 297 90 303 140 l 331 362 q 332 368 332 380 z"},"%":{"x_min":0,"x_max":765,"ha":765,"o":"m 132 556 q 132 597 152 632 q 172 668 206 689 q 240 710 278 710 q 326 710 358 676 q 391 642 391 592 q 391 552 370 516 q 350 481 316 460 q 283 439 245 439 q 196 439 164 472 q 132 506 132 556 z m 170 12 l 610 693 q 613 700 622 700 l 634 700 q 640 700 642 696 q 644 693 640 688 l 201 7 q 197 0 188 0 l 177 0 q 172 0 170 4 q 167 7 170 12 z m 362 589 q 362 628 338 654 q 313 681 275 681 q 245 681 218 664 q 192 648 176 620 q 161 591 161 559 q 161 520 186 494 q 210 468 249 468 q 278 468 304 484 q 330 501 346 529 q 362 557 362 589 z m 421 108 q 421 149 442 184 q 462 219 496 240 q 529 261 567 261 q 615 261 648 227 q 680 193 680 143 q 680 103 660 68 q 639 32 606 11 q 572 -10 534 -10 q 485 -10 453 24 q 421 58 421 108 z m 651 140 q 651 179 626 206 q 602 232 564 232 q 534 232 508 216 q 482 199 466 172 q 450 144 450 112 q 450 72 474 46 q 499 19 538 19 q 567 19 593 36 q 619 52 635 80 q 651 108 651 140 z"},"m":{"x_min":0,"x_max":616,"ha":616,"o":"m 579 381 q 579 371 577 347 l 536 10 q 534 0 525 0 l 506 0 q 502 0 500 3 q 497 6 498 10 l 539 343 q 541 363 541 371 q 541 419 520 446 q 499 474 464 474 q 420 474 390 440 q 360 405 353 345 l 312 10 q 310 0 301 0 l 283 0 q 273 0 275 10 l 316 343 q 318 363 318 371 q 318 419 298 446 q 277 474 242 474 q 197 474 167 440 q 137 405 130 345 l 89 10 q 88 6 85 3 q 82 0 78 0 l 59 0 q 49 0 51 10 l 110 492 q 112 502 121 502 l 139 502 q 148 502 148 492 l 143 451 q 142 448 144 448 q 145 448 147 450 q 168 479 196 494 q 225 509 256 509 q 293 509 318 488 q 342 467 351 428 q 353 422 356 429 q 376 468 408 488 q 441 509 479 509 q 526 509 552 475 q 579 441 579 381 z"},"#":{"x_min":0,"x_max":559,"ha":559,"o":"m 522 441 l 461 441 q 456 441 455 437 l 406 250 q 406 246 409 246 l 467 246 q 477 246 475 236 l 473 221 q 473 217 470 214 q 467 211 462 211 l 399 211 q 394 211 394 207 l 344 21 q 341 12 333 12 l 315 13 q 305 13 307 23 l 355 207 q 355 211 353 211 l 184 211 q 179 211 179 207 l 130 21 q 127 12 119 12 l 101 13 q 96 13 94 16 q 92 19 93 23 l 141 207 q 141 211 138 211 l 79 211 q 69 211 71 221 l 73 236 q 73 240 76 243 q 79 246 84 246 l 148 246 q 153 246 153 250 l 202 437 q 202 441 200 441 l 138 441 q 133 441 130 444 q 128 447 129 451 l 131 466 q 133 476 142 476 l 209 476 q 214 476 214 480 l 264 667 q 267 676 275 676 l 293 675 q 298 675 300 672 q 302 669 301 665 l 253 480 q 253 476 255 476 l 423 476 q 428 476 429 480 l 479 667 q 480 676 489 676 l 509 675 q 513 675 516 672 q 518 669 516 664 l 467 480 q 467 476 470 476 l 526 476 q 536 476 534 466 l 533 451 q 531 441 522 441 z m 367 250 l 416 437 q 417 438 416 440 q 415 441 414 441 l 245 441 q 240 441 240 437 l 192 250 q 191 249 192 248 q 193 246 194 246 l 362 246 q 367 246 367 250 z"},",":{"x_min":0,"x_max":157,"ha":157,"o":"m 14 -60 l 74 145 q 77 154 86 154 l 101 154 q 111 154 109 143 l 44 -62 q 41 -71 32 -71 l 21 -71 q 17 -71 14 -68 q 12 -65 14 -60 z"},"n":{"x_min":0,"x_max":401,"ha":401,"o":"m 365 389 q 365 380 363 356 l 320 10 q 320 6 317 3 q 314 0 309 0 l 291 0 q 281 0 283 10 l 325 352 q 327 370 327 378 q 327 424 306 449 q 284 474 244 474 q 199 474 168 440 q 137 405 130 345 l 89 10 q 88 6 85 3 q 82 0 78 0 l 59 0 q 49 0 51 10 l 110 492 q 112 502 121 502 l 139 502 q 148 502 148 492 l 142 448 q 142 445 144 445 q 145 445 147 447 q 167 478 196 494 q 225 509 259 509 q 310 509 338 478 q 365 446 365 389 z"},"h":{"x_min":0,"x_max":401,"ha":401,"o":"m 365 389 q 365 380 363 356 l 320 10 q 320 6 317 3 q 314 0 309 0 l 291 0 q 281 0 283 10 l 325 352 q 327 370 327 378 q 327 424 306 449 q 284 474 244 474 q 199 474 168 440 q 137 405 130 345 l 89 10 q 88 6 85 3 q 82 0 78 0 l 59 0 q 49 0 51 10 l 134 690 q 136 700 145 700 l 164 700 q 168 700 170 697 q 173 694 172 690 l 142 448 q 142 445 144 445 q 145 445 147 447 q 167 478 196 494 q 225 509 259 509 q 310 509 338 478 q 365 446 365 389 z"},"z":{"x_min":0,"x_max":344,"ha":344,"o":"m 21 10 l 23 29 q 23 32 27 42 l 298 461 q 299 463 299 464 q 299 466 297 466 l 89 466 q 79 466 81 476 l 83 492 q 83 496 86 499 q 89 502 94 502 l 340 502 q 349 502 349 492 l 346 473 q 346 470 342 460 l 71 41 q 70 39 70 38 q 70 36 72 36 l 282 36 q 292 36 290 26 l 288 10 q 288 6 285 3 q 282 0 277 0 l 29 0 q 19 0 21 10 z"},"B":{"x_min":0,"x_max":426,"ha":426,"o":"m 324 360 q 358 342 376 307 q 394 272 394 221 q 394 212 392 188 q 381 99 331 50 q 281 0 204 0 l 72 0 q 63 0 63 10 l 147 690 q 149 700 158 700 l 286 700 q 356 700 394 662 q 432 625 432 555 q 432 545 430 521 q 415 403 325 365 q 321 364 324 360 z m 181 661 l 147 383 q 147 379 150 379 l 247 379 q 308 379 346 416 q 385 453 393 519 q 395 539 395 547 q 395 603 366 634 q 336 665 282 665 l 185 665 q 184 665 182 664 q 181 663 181 661 z m 354 190 q 356 212 356 222 q 356 281 327 314 q 298 346 244 346 l 146 346 q 142 346 142 342 l 105 40 q 105 36 108 36 l 206 36 q 267 36 306 76 q 345 117 354 190 z"},"K":{"x_min":0,"x_max":421,"ha":421,"o":"m 63 10 l 147 690 q 149 700 158 700 l 176 700 q 185 700 185 690 l 141 333 q 140 330 142 330 q 144 329 146 332 l 405 693 q 412 700 418 700 l 440 700 q 446 700 448 696 q 449 693 445 688 l 259 425 q 256 422 257 419 l 380 12 l 380 9 q 380 5 378 2 q 375 0 371 0 l 347 0 q 339 0 338 8 l 227 383 q 227 387 223 383 l 135 268 q 132 265 132 263 l 101 10 q 99 0 90 0 l 72 0 q 63 0 63 10 z"},"R":{"x_min":0,"x_max":418,"ha":418,"o":"m 327 8 l 254 332 q 254 335 251 335 l 145 335 q 141 335 141 331 l 101 10 q 99 0 90 0 l 72 0 q 63 0 63 10 l 147 690 q 149 700 158 700 l 301 700 q 359 700 393 660 q 427 620 427 552 q 427 528 425 516 q 417 447 382 400 q 346 353 294 340 q 290 338 290 335 l 364 11 l 364 9 q 364 0 355 0 l 338 0 q 328 0 327 8 z m 181 661 l 146 372 q 145 371 146 370 q 147 368 149 368 l 257 368 q 308 368 344 408 q 379 449 387 515 q 389 537 389 545 q 389 600 364 632 q 338 665 293 665 l 185 665 q 184 665 182 664 q 181 663 181 661 z"},"T":{"x_min":0,"x_max":390,"ha":390,"o":"m 418 690 l 417 675 q 416 671 413 668 q 410 665 406 665 l 276 665 q 273 665 271 661 l 191 10 q 191 6 188 3 q 185 0 180 0 l 162 0 q 152 0 154 10 l 233 661 q 234 662 233 664 q 232 665 230 665 l 109 665 q 100 665 100 675 l 102 690 q 104 700 113 700 l 410 700 q 420 700 418 690 z"},"P":{"x_min":0,"x_max":419,"ha":419,"o":"m 427 551 q 427 528 425 515 q 415 433 368 382 q 322 332 257 332 l 145 332 q 143 332 142 331 q 140 330 140 328 l 101 10 q 99 0 90 0 l 72 0 q 63 0 63 10 l 147 692 q 149 702 158 702 l 302 702 q 360 702 394 661 q 427 620 427 551 z m 387 515 q 389 537 389 547 q 389 603 364 634 q 338 666 293 666 l 186 666 q 184 666 182 665 q 181 664 181 662 l 145 370 q 145 366 149 366 l 256 366 q 307 366 343 407 q 379 448 387 515 z"},"|":{"x_min":0,"x_max":121,"ha":121,"o":"m 14 -70 l 114 750 q 115 754 118 757 q 121 760 125 760 l 144 760 q 154 760 152 750 l 52 -70 q 51 -74 48 -77 q 45 -80 41 -80 l 22 -80 q 12 -80 14 -70 z"},"t":{"x_min":0,"x_max":248,"ha":248,"o":"m 245 470 l 164 470 q 160 470 160 466 l 119 130 q 117 108 117 101 q 117 64 132 50 q 148 35 180 35 l 191 35 q 195 35 198 32 q 200 29 199 25 l 197 10 q 195 0 186 0 l 170 0 q 125 0 102 20 q 78 39 78 90 q 78 99 80 123 l 122 466 q 122 470 119 470 l 79 470 q 69 470 71 480 l 72 492 q 74 502 83 502 l 123 502 q 127 502 127 506 l 141 618 q 143 628 152 628 l 170 628 q 179 628 179 618 l 165 506 q 165 502 168 502 l 249 502 q 259 502 257 492 l 256 480 q 254 470 245 470 z"},"M":{"x_min":0,"x_max":493,"ha":493,"o":"m 449 700 l 469 700 q 478 700 478 690 l 394 10 q 392 0 383 0 l 365 0 q 356 0 356 10 l 429 601 q 429 604 427 604 q 425 604 424 602 l 280 336 q 276 328 268 328 q 260 328 259 336 l 178 600 q 178 602 176 602 q 174 602 173 599 l 101 10 q 99 0 90 0 l 72 0 q 63 0 63 10 l 147 690 q 149 700 158 700 l 177 700 q 186 700 187 692 l 275 404 q 275 402 277 402 q 279 402 280 404 l 437 692 q 441 700 449 700 z"},"g":{"x_min":0,"x_max":389,"ha":389,"o":"m 345 502 l 364 502 q 373 502 373 492 l 313 3 q 287 -201 113 -201 q 105 -201 102 -198 q 99 -196 100 -191 l 102 -175 q 102 -165 115 -165 q 188 -165 226 -122 q 264 -79 274 5 l 280 50 q 280 53 278 53 q 277 53 275 51 q 256 23 228 8 q 200 -6 167 -6 q 114 -6 84 28 q 53 61 53 117 q 53 132 54 140 l 81 363 q 89 428 130 469 q 172 510 230 510 q 263 510 287 496 q 311 481 324 453 q 326 451 328 451 q 329 451 329 454 l 334 492 q 336 502 345 502 z m 291 142 l 318 362 q 319 369 319 381 q 319 424 296 450 q 273 475 235 475 q 190 475 158 444 q 125 412 119 362 l 92 142 q 91 136 91 124 q 91 81 116 55 q 140 29 180 29 q 223 29 254 60 q 285 92 291 142 z"},"j":{"x_min":0,"x_max":186,"ha":186,"o":"m 104 648 q 104 671 119 686 q 134 701 155 701 q 172 701 182 690 q 193 679 193 661 q 193 639 178 624 q 164 610 144 610 q 127 610 116 621 q 104 632 104 648 z m -60 -200 l -59 -185 q -57 -175 -48 -175 q -10 -172 13 -142 q 36 -113 42 -63 l 110 492 q 112 502 121 502 l 139 502 q 148 502 148 492 l 80 -63 q 62 -206 -52 -210 q -62 -210 -60 -200 z"},"i":{"x_min":0,"x_max":197,"ha":197,"o":"m 115 649 q 115 671 130 686 q 144 701 165 701 q 183 701 194 690 q 204 679 204 661 q 204 639 189 624 q 174 610 153 610 q 136 610 126 621 q 115 632 115 649 z m 61 10 l 121 492 q 121 496 124 499 q 127 502 131 502 l 150 502 q 160 502 158 492 l 99 10 q 97 0 88 0 l 70 0 q 61 0 61 10 z"},"y":{"x_min":0,"x_max":332,"ha":332,"o":"m -3 -190 l -1 -175 q 1 -165 10 -165 q 39 -164 56 -152 q 73 -139 88 -106 q 103 -74 127 -3 q 128 -1 128 0 q 127 2 127 3 l 62 491 l 62 493 q 62 497 65 500 q 68 502 72 502 l 93 502 q 102 502 102 493 l 153 59 q 153 56 154 56 q 156 56 157 59 l 313 493 q 315 502 325 502 l 344 502 q 356 502 351 491 l 146 -56 q 122 -119 104 -149 q 85 -179 64 -190 q 42 -200 6 -200 l 2 -200 q 0 -200 -2 -197 q -4 -194 -3 -190 z"},"@":{"x_min":0,"x_max":741,"ha":741,"o":"m 707 367 q 707 321 694 270 q 671 178 622 126 q 572 74 508 74 q 476 74 454 88 q 433 101 424 125 q 422 130 419 125 q 403 100 378 86 q 353 73 327 73 q 292 73 271 94 q 250 114 250 149 q 250 162 253 177 q 260 208 263 218 l 272 255 l 291 332 q 302 379 334 408 q 366 436 409 436 q 428 436 444 427 q 460 418 468 402 q 469 400 471 400 q 473 401 473 403 l 478 421 q 479 430 488 430 l 500 430 q 505 430 507 426 q 509 423 508 419 l 455 203 q 451 188 451 172 q 451 141 468 122 q 485 104 517 104 q 565 104 603 146 q 641 189 660 268 q 673 316 673 361 q 673 458 615 513 q 557 568 456 568 q 378 568 305 528 q 232 488 178 416 q 125 343 102 250 q 90 201 90 158 q 90 57 148 -2 q 205 -60 300 -60 q 351 -60 396 -46 q 441 -32 470 -12 q 472 -10 476 -10 q 480 -10 483 -14 l 488 -21 q 490 -23 490 -27 q 490 -33 485 -35 q 452 -59 400 -75 q 348 -91 290 -91 q 184 -91 121 -27 q 58 37 58 147 q 58 197 71 250 q 96 352 156 431 q 216 510 296 554 q 377 598 464 598 q 577 598 642 536 q 707 474 707 367 z m 418 178 l 437 254 l 450 310 l 456 334 q 458 348 458 354 q 458 378 445 392 q 432 407 408 407 q 379 407 354 386 q 330 364 322 331 q 316 311 303 254 l 296 223 l 285 178 q 282 166 282 155 q 282 131 296 116 q 310 102 334 102 q 362 102 385 123 q 408 144 418 178 z"},".":{"x_min":0,"x_max":169,"ha":169,"o":""},"p":{"x_min":0,"x_max":406,"ha":406,"o":"m 376 389 q 376 382 374 364 l 347 139 q 339 74 298 33 q 256 -8 197 -8 q 166 -8 142 6 q 118 20 105 46 q 104 48 102 48 q 100 47 99 44 l 71 -188 q 69 -198 60 -198 l 42 -198 q 37 -198 34 -195 q 32 -192 33 -188 l 117 492 q 117 496 120 499 q 123 502 128 502 l 146 502 q 155 502 155 492 l 150 458 q 150 455 152 454 q 153 454 155 456 q 175 482 202 496 q 230 510 261 510 q 314 510 345 476 q 376 443 376 389 z m 338 382 q 338 424 314 450 q 290 475 249 475 q 206 475 176 444 q 145 412 139 362 l 111 140 q 110 134 110 121 q 110 79 133 53 q 156 27 194 27 q 240 27 272 58 q 304 90 310 140 l 337 362 q 338 369 338 382 z"},"X":{"x_min":0,"x_max":403,"ha":403,"o":"m 25 12 l 204 347 q 206 350 204 353 l 108 688 l 107 691 q 107 700 117 700 l 137 700 q 146 700 147 692 l 228 393 q 228 391 230 390 q 233 390 234 393 l 387 692 q 390 700 398 700 l 419 700 q 424 700 426 696 q 428 693 425 688 l 245 352 q 244 350 244 346 l 342 12 l 343 9 q 343 0 333 0 l 312 0 q 304 0 303 8 l 223 306 q 222 308 220 308 q 218 308 217 306 l 63 8 q 59 0 51 0 l 31 0 q 26 0 24 4 q 22 7 25 12 z"},"*":{"x_min":0,"x_max":349,"ha":349,"o":"m 190 403 l 207 538 q 207 540 206 541 q 204 542 202 541 l 86 472 l 81 470 q 75 470 73 476 l 70 484 q 69 486 69 489 q 69 494 75 498 l 192 567 q 193 568 194 570 q 194 572 193 573 l 92 642 q 86 647 91 656 l 96 664 q 103 674 110 668 l 209 599 q 211 598 212 599 q 214 600 215 602 l 231 737 q 233 747 242 747 l 252 747 q 262 747 260 737 l 244 602 q 243 600 244 599 q 246 598 248 599 l 364 668 q 368 670 370 670 q 375 670 377 664 l 380 656 l 382 651 q 382 647 376 642 l 259 573 q 257 572 256 570 q 256 568 258 567 l 358 498 q 365 492 359 484 l 354 476 q 349 466 340 472 l 241 541 q 239 542 238 541 q 236 540 236 538 l 219 403 q 217 393 208 393 l 199 393 q 194 393 192 396 q 189 399 190 403 z"},"Y":{"x_min":0,"x_max":389,"ha":389,"o":"m 157 10 l 196 327 q 196 328 196 330 q 197 331 196 332 l 107 688 l 106 691 q 106 700 116 700 l 135 700 q 145 700 146 692 l 219 377 q 220 375 222 375 q 224 375 225 377 l 374 692 q 378 700 387 700 l 406 700 q 411 700 413 696 q 415 693 412 688 l 236 332 q 234 330 234 327 l 195 10 q 193 0 184 0 l 166 0 q 157 0 157 10 z"},"c":{"x_min":0,"x_max":376,"ha":376,"o":"m 52 116 q 52 123 54 139 l 81 363 q 89 428 132 469 q 176 510 237 510 q 294 510 328 477 q 361 444 361 396 q 361 386 360 381 l 360 377 q 359 373 356 370 q 353 367 349 367 l 330 366 q 320 366 322 376 l 322 380 l 323 391 q 323 426 298 450 q 274 475 233 475 q 189 475 157 444 q 125 412 119 362 l 92 140 q 91 134 91 122 q 91 80 115 54 q 139 27 178 27 q 222 27 254 56 q 286 85 290 122 l 291 126 q 293 136 302 136 l 320 136 q 325 136 328 133 q 330 130 329 126 l 328 121 q 324 87 303 58 q 282 28 248 10 q 214 -8 174 -8 q 119 -8 86 26 q 52 60 52 116 z"},"!":{"x_min":0,"x_max":232,"ha":232,"o":"m 110 233 l 163 690 q 165 700 174 700 l 193 700 q 197 700 200 697 q 202 694 201 690 l 143 233 q 142 223 132 223 l 119 223 q 109 223 110 233 z m 58 42 q 58 64 73 80 q 88 96 108 96 q 126 96 136 85 q 147 74 147 56 q 147 34 132 19 q 118 4 97 4 q 80 4 69 14 q 58 25 58 42 z"},"/":{"x_min":0,"x_max":288,"ha":288,"o":"m 10 11 l 251 691 q 252 695 255 698 q 258 700 262 700 l 281 700 q 286 700 288 697 q 289 694 287 689 l 47 9 q 43 0 35 0 l 16 0 q 11 0 10 4 q 8 7 10 11 z"},"[":{"x_min":0,"x_max":275,"ha":275,"o":"m -7 -99 l 97 752 q 99 762 108 762 l 235 762 q 244 762 244 752 l 242 737 q 240 727 231 727 l 136 727 q 133 727 131 723 l 34 -70 q 34 -72 35 -73 q 36 -74 37 -74 l 134 -74 q 138 -74 140 -77 q 143 -80 142 -84 l 140 -99 q 138 -109 129 -109 l 1 -109 q -9 -109 -7 -99 z"},"6":{"x_min":0,"x_max":384,"ha":384,"o":"m 354 280 q 354 253 349 211 q 341 156 333 131 q 315 62 276 27 q 238 -8 181 -8 q 128 -8 98 24 q 68 57 64 121 q 62 169 67 210 l 108 540 q 118 616 162 662 q 206 708 269 708 q 320 708 351 670 q 382 633 382 570 q 382 560 380 540 l 379 533 q 377 523 368 523 l 349 523 q 345 523 342 526 q 340 529 341 533 l 342 542 q 344 560 344 567 q 344 614 322 643 q 299 672 265 672 q 219 672 186 636 q 153 600 146 542 l 125 373 q 125 370 126 370 q 128 370 130 372 q 148 401 176 416 q 204 432 236 432 q 287 432 316 402 q 346 371 352 314 q 354 294 354 280 z m 311 213 q 316 251 316 277 q 316 291 314 311 q 302 397 231 397 q 158 397 126 305 q 112 262 106 213 q 100 168 102 128 q 110 27 186 27 q 225 27 253 54 q 281 82 297 135 q 307 173 311 213 z"},"r":{"x_min":0,"x_max":269,"ha":269,"o":"m 292 496 q 299 491 294 483 l 286 463 q 281 454 273 458 q 259 464 238 463 q 197 463 166 422 q 135 381 127 320 l 89 10 q 88 6 85 3 q 82 0 78 0 l 59 0 q 49 0 51 10 l 110 492 q 112 502 121 502 l 139 502 q 148 502 148 492 l 140 427 q 139 424 141 424 q 143 424 144 427 q 163 464 190 485 q 218 506 251 506 q 275 506 292 496 z"},"2":{"x_min":0,"x_max":373,"ha":373,"o":"m 80 35 l 317 35 q 321 35 324 32 q 326 29 325 25 l 323 10 q 323 6 320 3 q 317 0 312 0 l 35 0 q 26 0 26 10 l 29 28 q 29 33 33 41 l 237 340 q 318 464 327 540 q 329 558 329 567 q 329 616 306 644 q 283 673 243 673 q 199 673 168 636 q 137 600 130 541 l 126 505 q 124 495 115 495 l 95 495 q 86 495 86 505 l 91 542 q 101 616 144 662 q 187 708 248 708 q 303 708 336 670 q 368 633 368 570 q 368 560 366 540 q 356 452 269 322 l 189 204 q 165 167 137 126 q 109 86 79 40 q 77 38 78 36 q 78 35 80 35 z"},"{":{"x_min":0,"x_max":233,"ha":233,"o":"m 57 -31 q 57 -22 59 0 l 86 222 q 88 244 88 251 q 88 278 79 292 q 70 307 52 312 q 44 313 44 322 l 46 338 q 47 347 56 348 q 80 354 94 376 q 108 397 113 438 l 139 653 q 147 711 170 736 q 193 762 239 762 l 274 762 q 284 762 282 752 l 281 737 q 279 727 270 727 l 242 727 q 213 727 197 708 q 181 690 177 648 l 151 440 q 146 396 132 370 q 119 344 95 333 q 91 332 94 328 q 126 308 126 253 q 126 244 124 220 l 98 5 q 96 -15 96 -21 q 96 -49 108 -62 q 119 -74 143 -74 l 171 -74 q 176 -74 178 -77 q 181 -80 180 -84 l 178 -99 q 176 -109 167 -109 l 132 -109 q 93 -109 75 -90 q 57 -72 57 -31 z"},"9":{"x_min":0,"x_max":377,"ha":377,"o":"m 361 547 q 361 530 357 490 l 316 160 q 307 84 263 38 q 219 -8 154 -8 q 104 -8 74 29 q 43 66 43 128 q 43 138 45 160 l 46 167 q 46 171 49 174 q 52 177 57 177 l 75 177 q 84 177 84 167 l 82 158 q 81 150 81 134 q 81 86 102 57 q 124 28 159 28 q 206 28 238 64 q 271 100 278 158 l 299 328 q 300 331 298 331 q 297 331 295 329 q 256 268 187 268 q 137 268 108 298 q 79 329 73 386 q 71 398 71 425 q 71 458 75 489 q 80 533 90 569 q 109 638 148 673 q 187 708 243 708 q 352 708 359 579 q 361 559 361 547 z m 299 395 q 313 438 319 487 q 324 526 322 572 q 314 673 239 673 q 199 673 171 646 q 143 618 128 565 q 118 534 112 487 q 108 445 108 429 q 108 407 111 389 q 122 303 193 303 q 266 303 299 395 z"}," ":{"x_min":0,"x_max":194,"ha":194,"o":""},"I":{"x_min":0,"x_max":201,"ha":201,"o":"m 63 10 l 147 690 q 149 700 158 700 l 176 700 q 185 700 185 690 l 101 10 q 99 0 90 0 l 72 0 q 63 0 63 10 z"},"H":{"x_min":0,"x_max":454,"ha":454,"o":"m 411 700 l 429 700 q 434 700 436 697 q 439 694 438 690 l 354 10 q 354 6 351 3 q 348 0 343 0 l 325 0 q 316 0 316 10 l 356 329 q 356 333 352 333 l 145 333 q 142 333 140 329 l 101 10 q 99 0 90 0 l 72 0 q 63 0 63 10 l 147 690 q 149 700 158 700 l 176 700 q 185 700 185 690 l 146 372 q 145 371 146 370 q 147 368 149 368 l 357 368 q 358 368 360 369 q 361 370 361 372 l 400 690 q 402 700 411 700 z"},"4":{"x_min":0,"x_max":372,"ha":372,"o":"m 355 224 l 353 208 q 353 204 350 201 q 347 198 342 198 l 314 198 q 310 198 310 194 l 287 10 q 287 6 284 3 q 281 0 276 0 l 258 0 q 248 0 250 10 l 272 194 q 272 198 269 198 l 40 198 q 31 198 31 208 l 33 224 q 35 232 37 236 l 245 692 q 250 700 258 700 l 278 700 q 289 700 284 689 l 80 239 q 79 237 80 236 q 80 234 82 234 l 273 234 q 276 234 278 238 l 299 412 q 301 422 310 422 l 328 422 q 337 422 337 412 l 315 238 q 315 234 319 234 l 347 234 q 357 234 355 224 z"},"~":{"x_min":0,"x_max":435,"ha":435,"o":"m 222 282 q 205 294 190 300 q 174 306 156 306 q 108 306 77 264 q 74 260 70 259 q 66 258 63 260 l 56 266 q 49 273 54 279 q 72 309 98 326 q 125 342 158 342 q 181 342 198 336 q 216 329 235 316 q 260 299 278 290 q 296 282 322 282 q 342 282 357 292 q 372 302 390 322 q 397 331 404 325 l 412 319 q 418 313 413 305 q 391 277 368 262 q 346 246 317 246 q 289 246 271 254 q 253 262 222 282 z"},"D":{"x_min":0,"x_max":447,"ha":447,"o":"m 63 10 l 147 690 q 149 700 158 700 l 294 700 q 356 700 390 661 q 424 622 424 553 q 424 542 422 518 l 380 182 q 370 97 324 48 q 278 0 209 0 l 72 0 q 63 0 63 10 z m 108 35 l 214 35 q 265 36 299 75 q 333 114 341 182 l 383 517 q 385 539 385 549 q 385 604 360 634 q 336 665 291 665 l 185 665 q 184 665 182 664 q 181 663 181 661 l 105 39 q 104 38 105 36 q 106 35 108 35 z"},"^":{"x_min":0,"x_max":373,"ha":373,"o":"m 59 323 l 230 692 q 234 700 243 700 l 262 700 q 272 700 273 692 l 354 323 l 354 321 q 354 312 345 312 l 331 312 q 323 312 321 320 l 250 652 q 249 654 247 654 q 245 654 244 652 l 93 320 q 88 312 80 312 l 65 312 q 60 312 58 315 q 57 318 59 323 z"},"0":{"x_min":0,"x_max":427,"ha":427,"o":"m 58 131 q 58 139 60 159 l 107 541 q 117 617 164 663 q 211 709 280 709 q 342 709 379 671 q 416 633 416 568 q 416 559 414 541 l 367 159 q 357 83 309 37 q 261 -9 192 -9 q 130 -9 94 29 q 58 67 58 131 z m 329 156 l 376 544 q 378 560 378 567 q 378 616 351 645 q 324 674 276 674 q 224 674 188 638 q 153 603 145 544 l 98 156 q 96 140 96 133 q 96 84 123 55 q 150 26 196 26 q 249 26 285 62 q 321 97 329 156 z"},"F":{"x_min":0,"x_max":384,"ha":384,"o":"m 418 665 l 185 665 q 184 665 182 664 q 181 663 181 661 l 146 372 q 145 371 146 370 q 147 368 149 368 l 301 368 q 310 368 310 358 l 308 343 q 306 333 297 333 l 145 333 q 142 333 140 329 l 101 10 q 99 0 90 0 l 72 0 q 63 0 63 10 l 147 690 q 149 700 158 700 l 423 700 q 427 700 430 697 q 432 694 431 690 l 429 675 q 427 665 418 665 z"},"`":{"x_min":0,"x_max":158,"ha":158,"o":""},"k":{"x_min":0,"x_max":373,"ha":373,"o":"m 51 10 l 134 690 q 136 700 145 700 l 164 700 q 168 700 170 697 q 173 694 172 690 l 119 256 q 118 254 120 254 q 122 253 123 255 l 325 496 q 329 502 338 502 l 357 502 q 363 502 364 498 q 366 495 362 490 l 254 360 q 254 359 252 358 q 251 356 252 355 l 322 11 l 323 8 q 323 0 313 0 l 294 0 q 286 0 283 8 l 225 321 q 224 327 219 322 l 113 195 q 111 193 111 190 l 89 10 q 88 6 85 3 q 82 0 78 0 l 59 0 q 49 0 51 10 z"},"u":{"x_min":0,"x_max":401,"ha":401,"o":"m 346 502 l 364 502 q 373 502 373 492 l 314 10 q 313 6 310 3 q 307 0 303 0 l 284 0 q 274 0 276 10 l 281 50 q 281 53 279 54 q 277 54 276 51 q 239 -7 168 -7 q 116 -7 88 22 q 59 51 59 108 q 59 117 61 139 l 104 492 q 106 502 115 502 l 133 502 q 138 502 140 499 q 143 496 142 492 l 100 147 q 98 127 98 119 q 98 74 119 51 q 140 28 179 28 q 225 28 256 62 q 287 97 294 157 l 335 492 q 337 502 346 502 z"},"]":{"x_min":0,"x_max":275,"ha":275,"o":"m 209 -109 l 80 -109 q 71 -109 71 -99 l 73 -84 q 75 -74 84 -74 l 181 -74 q 185 -74 185 -70 l 283 723 q 283 727 279 727 l 183 727 q 179 727 176 730 q 174 733 175 737 l 177 752 q 177 756 180 759 q 183 762 188 762 l 316 762 q 326 762 324 752 l 220 -99 q 218 -109 209 -109 z"},"U":{"x_min":0,"x_max":460,"ha":460,"o":"m 76 143 q 76 166 78 178 l 141 690 q 143 700 152 700 l 170 700 q 175 700 178 697 q 180 694 179 690 l 115 174 q 113 156 113 148 q 113 92 140 60 q 167 27 214 27 q 266 27 304 68 q 341 108 349 174 l 413 690 q 413 694 416 697 q 419 700 424 700 l 442 700 q 452 700 450 690 l 388 178 q 378 94 328 43 q 279 -8 210 -8 q 147 -8 112 33 q 76 74 76 143 z"},"o":{"x_min":0,"x_max":390,"ha":390,"o":"m 52 116 q 52 123 54 139 l 81 363 q 89 428 132 469 q 176 510 237 510 q 294 510 326 476 q 359 441 359 385 q 359 371 358 363 l 330 139 q 322 74 279 33 q 236 -8 174 -8 q 119 -8 86 26 q 52 60 52 116 z m 293 140 l 320 362 q 321 368 321 380 q 321 422 297 448 q 273 475 233 475 q 189 475 157 443 q 125 411 119 362 l 92 140 q 91 134 91 122 q 91 80 115 54 q 139 27 178 27 q 223 27 255 58 q 287 90 293 140 z"},"N":{"x_min":0,"x_max":469,"ha":469,"o":"m 426 700 l 445 700 q 455 700 453 690 l 370 10 q 368 0 359 0 l 336 0 q 327 0 326 8 l 178 600 q 178 603 176 602 q 174 602 173 599 l 101 10 q 99 0 90 0 l 72 0 q 63 0 63 10 l 147 690 q 149 700 158 700 l 180 700 q 189 700 190 692 l 339 103 q 339 100 341 100 q 343 101 344 104 l 415 690 q 416 694 419 697 q 422 700 426 700 z"},"+":{"x_min":0,"x_max":430,"ha":430,"o":"m 416 328 l 414 316 q 412 306 403 306 l 253 306 q 249 306 249 302 l 230 147 q 229 143 226 140 q 223 137 219 137 l 206 137 q 197 137 197 147 l 217 302 q 217 306 213 306 l 63 306 q 54 306 54 316 l 56 328 q 58 338 67 338 l 217 338 q 221 338 221 342 l 241 498 q 241 502 244 505 q 247 508 252 508 l 264 508 q 273 508 273 498 l 253 342 q 253 338 257 338 l 407 338 q 416 338 416 328 z"},"G":{"x_min":0,"x_max":430,"ha":430,"o":"m 60 123 q 60 131 62 149 l 111 551 q 120 622 167 665 q 214 708 282 708 q 344 708 380 672 q 417 637 417 577 q 417 569 415 551 l 409 505 q 409 501 406 498 q 403 495 398 495 l 380 495 q 371 495 371 505 l 377 552 q 378 559 378 572 q 378 618 351 646 q 324 673 278 673 q 227 673 192 640 q 156 606 149 552 l 100 148 q 99 141 99 128 q 99 82 126 54 q 152 27 198 27 q 250 27 286 60 q 321 94 328 148 l 346 300 q 347 301 346 302 q 345 304 343 304 l 246 304 q 237 304 237 314 l 239 329 q 241 339 250 339 l 379 339 q 388 339 388 329 l 366 149 q 357 78 310 35 q 262 -8 194 -8 q 133 -8 96 28 q 60 63 60 123 z"},"q":{"x_min":0,"x_max":406,"ha":406,"o":"m 345 502 l 363 502 q 368 502 370 499 q 373 496 372 492 l 288 -188 q 288 -192 285 -195 q 282 -198 277 -198 l 259 -198 q 250 -198 250 -188 l 279 44 q 279 47 278 48 q 277 48 275 46 q 255 20 227 6 q 199 -8 168 -8 q 115 -8 84 26 q 52 59 52 114 q 52 121 54 139 l 82 364 q 90 428 131 469 q 172 510 231 510 q 263 510 288 496 q 312 482 325 456 q 326 454 328 454 q 329 455 330 458 l 334 492 q 336 502 345 502 z m 291 140 l 318 362 q 319 369 319 381 q 319 424 296 450 q 273 475 235 475 q 190 475 158 444 q 125 412 119 362 l 92 140 q 91 134 91 122 q 91 80 116 54 q 140 27 180 27 q 223 27 254 58 q 285 90 291 140 z"},"d":{"x_min":0,"x_max":400,"ha":400,"o":"m 369 700 l 388 700 q 392 700 394 697 q 397 694 396 690 l 313 10 q 312 6 309 3 q 306 0 302 0 l 283 0 q 273 0 275 10 l 279 44 q 279 47 278 48 q 277 48 275 46 q 255 20 227 6 q 199 -8 168 -8 q 115 -8 84 25 q 52 58 52 113 q 52 120 54 138 l 81 363 q 89 428 131 469 q 173 510 231 510 q 263 510 288 496 q 312 482 325 456 q 326 454 328 454 q 329 455 330 458 l 358 690 q 360 700 369 700 z m 291 140 l 318 362 q 319 369 319 381 q 319 424 296 450 q 273 475 235 475 q 190 475 158 444 q 125 412 119 362 l 92 140 q 91 134 91 122 q 91 79 116 53 q 140 27 180 27 q 223 27 254 58 q 285 90 291 140 z"},"1":{"x_min":0,"x_max":236,"ha":236,"o":"m 203 700 l 225 700 q 229 700 232 697 q 234 694 233 690 l 150 10 q 148 0 139 0 l 120 0 q 110 0 112 10 l 190 646 q 190 648 188 649 q 187 650 185 649 l 84 604 q 82 603 79 603 q 74 603 72 610 l 70 624 l 70 626 q 70 634 76 637 l 190 697 q 196 700 203 700 z"},"5":{"x_min":0,"x_max":383,"ha":383,"o":"m 353 273 q 353 242 349 211 q 343 162 329 119 q 309 57 272 24 q 234 -8 180 -8 q 124 -8 94 25 q 64 58 62 124 q 62 129 62 136 q 61 144 62 154 l 62 156 q 62 160 65 162 q 68 164 72 164 l 90 164 q 99 164 99 154 l 100 126 q 105 27 185 27 q 257 27 291 120 q 305 161 311 211 q 314 240 314 265 q 314 292 311 314 q 299 394 230 394 q 149 394 120 311 q 116 302 108 302 l 88 302 q 84 302 82 305 q 79 308 80 312 l 126 690 q 127 694 130 697 q 133 700 137 700 l 379 700 q 389 700 387 690 l 386 675 q 385 671 382 668 q 379 665 375 665 l 165 665 q 161 665 161 661 l 125 376 q 124 373 126 373 q 127 373 129 375 q 169 430 241 430 q 287 430 314 403 q 341 376 349 323 q 353 303 353 273 z"}}}
